<svg class="poloto" width="1500" height="800" viewBox="0 0 1500 800" xmlns="http://www.w3.org/2000/svg"><style>.poloto{stroke-linecap:round;stroke-linejoin:round;font-family:Roboto,sans-serif;font-size:16px;}.poloto_background{fill:#262626;}.poloto_scatter{stroke-width:7}.poloto_tick_line{stroke:dimgray;stroke-width:0.5}.poloto_line{stroke-width:2}.poloto_text{fill: white;}.poloto_axis_lines{stroke: white;stroke-width:3;fill:none;stroke-dasharray:none}.poloto_title{font-size:24px;dominant-baseline:start;text-anchor:middle;}.poloto_xname{font-size:24px;dominant-baseline:start;text-anchor:middle;}.poloto_yname{font-size:24px;dominant-baseline:start;text-anchor:middle;}.poloto0stroke{stroke:blue;}.poloto1stroke{stroke:red;}.poloto2stroke{stroke:green;}.poloto3stroke{stroke:gold;}.poloto4stroke{stroke:aqua;}.poloto5stroke{stroke:lime;}.poloto6stroke{stroke:orange;}.poloto7stroke{stroke:chocolate;}.poloto0fill{fill:blue;}.poloto1fill{fill:red;}.poloto2fill{fill:green;}.poloto3fill{fill:gold;}.poloto4fill{fill:aqua;}.poloto5fill{fill:lime;}.poloto6fill{fill:orange;}.poloto7fill{fill:chocolate;}</style><circle  r="1e5" class="poloto_background" /><text  class="poloto_text poloto_legend_text" x="1375" y="100" >Payouts</text><rect  class="poloto_histo poloto_legend_icon poloto0fill poloto0legend" x="1380" y="76.25" width="50" height="7.5" rx="5" ry="5" /><g  class="poloto_histo poloto0fill" ><rect  x="160.22" y="604.29" width="3" height="95.70971843725204" /><rect  x="160.44" y="700.00" width="3" height="0" /><rect  x="164.38" y="606.86" width="3" height="93.14341683606813" /><rect  x="164.60" y="700.00" width="7.315393268407206" height="0" /><rect  x="174.91" y="622.55" width="3" height="77.44542438395877" /><rect  x="175.13" y="700.00" width="6.816792081997846" height="0" /><rect  x="184.95" y="618.55" width="3" height="81.45191704353374" /><rect  x="185.16" y="700.00" width="3.4943341045145644" height="0" /><rect  x="191.65" y="618.20" width="3" height="81.80286608035033" /><rect  x="191.87" y="700.00" width="3" height="0" /><rect  x="195.26" y="639.13" width="3" height="60.87092050442152" /><rect  x="195.48" y="700.00" width="7.097568216369837" height="0" /><rect  x="205.57" y="586.55" width="3" height="113.45326281874065" /><rect  x="205.79" y="700.00" width="8.620197520940565" height="0" /><rect  x="217.41" y="658.30" width="3" height="41.69630583898959" /><rect  x="217.62" y="700.00" width="3" height="0" /><rect  x="221.08" y="621.99" width="3" height="78.01208176100408" /><rect  x="221.30" y="700.00" width="3.410280102514662" height="0" /><rect  x="227.71" y="660.55" width="3" height="39.45262455125362" /><rect  x="227.92" y="700.00" width="7.087195594853256" height="0" /><rect  x="238.01" y="605.15" width="3" height="94.85042167623988" /><rect  x="238.22" y="700.00" width="15.829169480886776" height="0" /><rect  x="257.05" y="580.66" width="3" height="119.3423006978237" /><rect  x="257.27" y="700.00" width="3" height="0" /><rect  x="262.34" y="656.08" width="3" height="43.91574056311913" /><rect  x="262.56" y="700.00" width="37.82484993975959" height="0" /><rect  x="303.38" y="623.92" width="3" height="76.081526665036" /><rect  x="303.60" y="700.00" width="3" height="0" /><rect  x="308.53" y="588.29" width="3" height="111.71087523523238" /><rect  x="308.75" y="700.00" width="3" height="0" /><rect  x="313.68" y="642.10" width="3" height="57.89859135678273" /><rect  x="313.90" y="700.00" width="3" height="0" /><rect  x="319.43" y="604.99" width="3" height="95.0064848785479" /><rect  x="319.65" y="700.00" width="3" height="0" /><rect  x="324.80" y="601.34" width="3" height="98.65725789696057" /><rect  x="325.01" y="700.00" width="16.66005223270622" height="0" /><rect  x="344.67" y="658.62" width="3" height="41.38376813338641" /><rect  x="344.89" y="700.00" width="44.63930460513802" height="0" /><rect  x="392.53" y="623.15" width="3" height="76.8546613998999" /><rect  x="392.74" y="700.00" width="3" height="0" /><rect  x="396.67" y="623.22" width="3" height="76.78001681620276" /><rect  x="396.89" y="700.00" width="3" height="0" /><rect  x="401.24" y="624.57" width="3" height="75.42930731679871" /><rect  x="401.45" y="700.00" width="3" height="0" /><rect  x="406.70" y="679.62" width="3" height="20.38487933865747" /><rect  x="406.91" y="700.00" width="3" height="0" /><rect  x="412.04" y="624.31" width="3" height="75.68678376447042" /><rect  x="412.26" y="700.00" width="3" height="0" /><rect  x="417.30" y="648.29" width="3" height="51.70857888083037" /><rect  x="417.51" y="700.00" width="3" height="0" /><rect  x="422.45" y="623.38" width="3" height="76.62445208674194" /><rect  x="422.66" y="700.00" width="3" height="0" /><rect  x="427.60" y="624.35" width="3" height="75.64604314839107" /><rect  x="427.81" y="700.00" width="3" height="0" /><rect  x="432.75" y="650.89" width="3" height="49.10875508215304" /><rect  x="432.96" y="700.00" width="3" height="0" /><rect  x="437.90" y="627.55" width="3" height="72.44891086511655" /><rect  x="438.11" y="700.00" width="3" height="0" /><rect  x="442.93" y="636.44" width="3" height="63.561017918391485" /><rect  x="443.15" y="700.00" width="3" height="0" /><rect  x="448.20" y="654.18" width="3" height="45.81574522031883" /><rect  x="448.42" y="700.00" width="3" height="0" /><rect  x="453.35" y="628.07" width="3" height="71.93291789481168" /><rect  x="453.57" y="700.00" width="3" height="0" /><rect  x="458.50" y="666.69" width="3" height="33.309675847861854" /><rect  x="458.72" y="700.00" width="3" height="0" /><rect  x="463.65" y="616.95" width="3" height="83.05372188868932" /><rect  x="463.87" y="700.00" width="3" height="0" /><rect  x="468.80" y="612.71" width="3" height="87.28745149381348" /><rect  x="469.02" y="700.00" width="3" height="0" /><rect  x="473.95" y="633.13" width="3" height="66.8739027613176" /><rect  x="474.17" y="700.00" width="3" height="0" /><rect  x="478.52" y="634.83" width="3" height="65.17123895799114" /><rect  x="478.73" y="700.00" width="3" height="0" /><rect  x="484.26" y="640.60" width="3" height="59.40114479840349" /><rect  x="484.47" y="700.00" width="3" height="0" /><rect  x="489.41" y="697.87" width="3" height="2.1284266935284677" /><rect  x="489.62" y="700.00" width="3" height="0" /><rect  x="494.28" y="608.13" width="3" height="91.86556170059384" /><rect  x="494.50" y="700.00" width="3" height="0" /><rect  x="499.13" y="617.40" width="3" height="82.59651461686258" /><rect  x="499.34" y="700.00" width="3" height="0" /><rect  x="504.86" y="638.14" width="3" height="61.86414125086651" /><rect  x="505.07" y="700.00" width="3" height="0" /><rect  x="509.74" y="615.76" width="3" height="84.2384450040081" /><rect  x="509.95" y="700.00" width="3" height="0" /><rect  x="515.16" y="597.80" width="3" height="102.2010270007047" /><rect  x="515.37" y="700.00" width="3" height="0" /><rect  x="520.31" y="669.24" width="3" height="30.76458927946919" /><rect  x="520.52" y="700.00" width="3" height="0" /><rect  x="524.88" y="596.16" width="3" height="103.83714711446544" /><rect  x="525.09" y="700.00" width="3" height="0" /><rect  x="530.03" y="626.30" width="3" height="73.701713680794" /><rect  x="530.25" y="700.00" width="3" height="0" /><rect  x="535.76" y="628.81" width="3" height="71.18771397777209" /><rect  x="535.98" y="700.00" width="3" height="0" /><rect  x="540.91" y="644.54" width="3" height="55.46424461091624" /><rect  x="541.13" y="700.00" width="3" height="0" /><rect  x="546.06" y="628.03" width="3" height="71.97051839580331" /><rect  x="546.28" y="700.00" width="3" height="0" /><rect  x="551.21" y="609.75" width="3" height="90.24756135897451" /><rect  x="551.43" y="700.00" width="3" height="0" /><rect  x="555.78" y="658.96" width="3" height="41.03909638380708" /><rect  x="556.00" y="700.00" width="3" height="0" /><rect  x="560.91" y="639.50" width="3" height="60.49569537313562" /><rect  x="561.12" y="700.00" width="3.1956741399189923" height="0" /><rect  x="567.32" y="642.27" width="3" height="57.72990528353739" /><rect  x="567.53" y="700.00" width="3" height="0" /><rect  x="572.20" y="522.53" width="3" height="177.46961569136306" /><rect  x="572.41" y="700.00" width="3" height="0" /><rect  x="576.97" y="560.03" width="3" height="139.9679830139288" /><rect  x="577.18" y="700.00" width="3" height="0" /><rect  x="581.51" y="568.04" width="3" height="131.9586818475159" /><rect  x="581.73" y="700.00" width="3" height="0" /><rect  x="587.27" y="598.43" width="3" height="101.56825925637736" /><rect  x="587.48" y="700.00" width="3" height="0" /><rect  x="591.81" y="591.71" width="3" height="108.2863517558535" /><rect  x="592.03" y="700.00" width="3" height="0" /><rect  x="597.57" y="528.61" width="3" height="171.38799731320898" /><rect  x="597.78" y="700.00" width="3" height="0" /><rect  x="602.11" y="527.22" width="3" height="172.7823732166927" /><rect  x="602.32" y="700.00" width="3" height="0" /><rect  x="607.87" y="549.99" width="3" height="150.0117187039076" /><rect  x="608.08" y="700.00" width="3" height="0" /><rect  x="613.02" y="585.88" width="3" height="114.1198643060909" /><rect  x="613.23" y="700.00" width="3" height="0" /><rect  x="618.17" y="559.32" width="3" height="140.68044380026004" /><rect  x="618.38" y="700.00" width="3" height="0" /><rect  x="623.32" y="563.64" width="3" height="136.36373723999384" /><rect  x="623.53" y="700.00" width="3" height="0" /><rect  x="627.87" y="532.15" width="3" height="167.84898998499602" /><rect  x="628.08" y="700.00" width="3" height="0" /><rect  x="633.62" y="426.71" width="3" height="273.29490371869343" /><rect  x="633.84" y="700.00" width="3" height="0" /><rect  x="638.17" y="547.54" width="3" height="152.46210375274427" /><rect  x="638.38" y="700.00" width="3" height="0" /><rect  x="643.92" y="529.00" width="3" height="170.99901475755905" /><rect  x="644.14" y="700.00" width="3" height="0" /><rect  x="649.25" y="523.28" width="3" height="176.72266387197806" /><rect  x="649.46" y="700.00" width="3" height="0" /><rect  x="654.22" y="554.43" width="3" height="145.56657298321772" /><rect  x="654.44" y="700.00" width="3" height="0" /><rect  x="658.82" y="631.27" width="3" height="68.73334682907296" /><rect  x="659.04" y="700.00" width="3" height="0" /><rect  x="664.12" y="633.46" width="3" height="66.54327034928826" /><rect  x="664.34" y="700.00" width="3" height="0" /><rect  x="669.54" y="383.65" width="3" height="316.3463982090678" /><rect  x="669.76" y="700.00" width="3" height="0" /><rect  x="674.24" y="428.30" width="3" height="271.699070501122" /><rect  x="674.46" y="700.00" width="3" height="0" /><rect  x="679.50" y="420.62" width="3" height="279.3770166119501" /><rect  x="679.71" y="700.00" width="3" height="0" /><rect  x="685.13" y="384.93" width="3" height="315.07162859210314" /><rect  x="685.34" y="700.00" width="3" height="0" /><rect  x="690.28" y="500.35" width="3" height="199.6459250553837" /><rect  x="690.49" y="700.00" width="5.436875742539996" height="0" /><rect  x="698.93" y="564.39" width="3" height="135.60689268302008" /><rect  x="699.14" y="700.00" width="3" height="0" /><rect  x="700.58" y="502.58" width="3" height="197.41942230695975" /><rect  x="700.79" y="700.00" width="3" height="0" /><rect  x="705.73" y="352.93" width="3" height="347.06979365997086" /><rect  x="705.94" y="700.00" width="3" height="0" /><rect  x="710.88" y="451.75" width="3" height="248.2536562703002" /><rect  x="711.09" y="700.00" width="3" height="0" /><rect  x="716.03" y="454.34" width="3" height="245.65512158004668" /><rect  x="716.24" y="700.00" width="3" height="0" /><rect  x="721.18" y="391.78" width="3" height="308.2211977420144" /><rect  x="721.39" y="700.00" width="3" height="0" /><rect  x="726.33" y="499.03" width="3" height="200.96793268714816" /><rect  x="726.55" y="700.00" width="3" height="0" /><rect  x="731.14" y="381.68" width="3" height="318.32488565029587" /><rect  x="731.35" y="700.00" width="3" height="0" /><rect  x="736.10" y="423.09" width="3" height="276.91013253808984" /><rect  x="736.31" y="700.00" width="3" height="0" /><rect  x="741.21" y="413.35" width="3" height="286.64714820393607" /><rect  x="741.43" y="700.00" width="3" height="0" /><rect  x="746.52" y="409.54" width="3" height="290.4637599521196" /><rect  x="746.73" y="700.00" width="3" height="0" /><rect  x="752.08" y="338.22" width="3" height="361.77614267904397" /><rect  x="752.30" y="700.00" width="3" height="0" /><rect  x="757.23" y="427.66" width="3" height="272.33941093290946" /><rect  x="757.45" y="700.00" width="3" height="0" /><rect  x="762.38" y="440.30" width="3" height="259.69766825194546" /><rect  x="762.60" y="700.00" width="3" height="0" /><rect  x="767.21" y="363.39" width="3" height="336.6089447811604" /><rect  x="767.43" y="700.00" width="3" height="0" /><rect  x="772.25" y="494.33" width="3" height="205.6716150236357" /><rect  x="772.46" y="700.00" width="3" height="0" /><rect  x="777.84" y="498.24" width="3" height="201.76190169948518" /><rect  x="778.05" y="700.00" width="3" height="0" /><rect  x="782.99" y="381.52" width="3" height="318.48483830065237" /><rect  x="783.20" y="700.00" width="3" height="0" /><rect  x="788.14" y="510.95" width="3" height="189.04934238561174" /><rect  x="788.35" y="700.00" width="3" height="0" /><rect  x="793.29" y="488.57" width="3" height="211.43138535592465" /><rect  x="793.50" y="700.00" width="3" height="0" /><rect  x="798.44" y="355.61" width="3" height="344.38891281816205" /><rect  x="798.65" y="700.00" width="3" height="0" /><rect  x="803.59" y="444.57" width="3" height="255.4312735547162" /><rect  x="803.80" y="700.00" width="3" height="0" /><rect  x="808.74" y="442.16" width="3" height="257.83632111796373" /><rect  x="808.95" y="700.00" width="3" height="0" /><rect  x="813.89" y="308.61" width="3" height="391.3861247419116" /><rect  x="814.10" y="700.00" width="3" height="0" /><rect  x="819.04" y="496.62" width="3" height="203.37761182628049" /><rect  x="819.25" y="700.00" width="3" height="0" /><rect  x="824.19" y="316.22" width="3" height="383.78283184063406" /><rect  x="824.41" y="700.00" width="3" height="0" /><rect  x="828.74" y="340.72" width="3" height="359.27921049552646" /><rect  x="828.95" y="700.00" width="3" height="0" /><rect  x="834.01" y="515.01" width="3" height="184.98942575656542" /><rect  x="834.22" y="700.00" width="3" height="0" /><rect  x="839.04" y="432.95" width="3" height="267.0468005850876" /><rect  x="839.26" y="700.00" width="3" height="0" /><rect  x="844.19" y="336.71" width="3" height="363.290427687242" /><rect  x="844.40" y="700.00" width="3" height="0" /><rect  x="849.50" y="529.89" width="3" height="170.10559168487214" /><rect  x="849.72" y="700.00" width="3" height="0" /><rect  x="854.49" y="325.44" width="3" height="374.5583239958682" /><rect  x="854.70" y="700.00" width="3" height="0" /><rect  x="859.64" y="198.57" width="3" height="501.43386013864176" /><rect  x="859.85" y="700.00" width="3.5118602581351297" height="0" /><rect  x="866.37" y="312.74" width="3" height="387.2629082515896" /><rect  x="866.58" y="700.00" width="3" height="0" /><rect  x="870.55" y="468.64" width="3" height="231.36072535836536" /><rect  x="870.76" y="700.00" width="3" height="0" /><rect  x="875.70" y="306.30" width="3" height="393.70028879128927" /><rect  x="875.91" y="700.00" width="3" height="0" /><rect  x="880.85" y="377.24" width="3" height="322.7553408322427" /><rect  x="881.06" y="700.00" width="3" height="0" /><rect  x="886.00" y="399.48" width="3" height="300.51628711190665" /><rect  x="886.21" y="700.00" width="3" height="0" /><rect  x="890.56" y="378.03" width="3" height="321.96887286204196" /><rect  x="890.78" y="700.00" width="3" height="0" /><rect  x="895.69" y="434.05" width="3" height="265.9453947909389" /><rect  x="895.91" y="700.00" width="3" height="0" /><rect  x="900.96" y="434.17" width="3" height="265.82698171364996" /><rect  x="901.17" y="700.00" width="3" height="0" /><rect  x="906.60" y="352.01" width="3" height="347.9863302650471" /><rect  x="906.81" y="700.00" width="3" height="0" /><rect  x="911.75" y="345.66" width="3" height="354.3447117887613" /><rect  x="911.96" y="700.00" width="3" height="0" /><rect  x="916.90" y="297.13" width="3" height="402.8725364464316" /><rect  x="917.12" y="700.00" width="3" height="0" /><rect  x="922.05" y="246.25" width="3" height="453.7459363509388" /><rect  x="922.27" y="700.00" width="3" height="0" /><rect  x="926.83" y="285.84" width="3" height="414.16163550869294" /><rect  x="927.05" y="700.00" width="6.849698329591774" height="0" /><rect  x="936.90" y="525.98" width="3" height="174.02390254934994" /><rect  x="937.11" y="700.00" width="3" height="0" /><rect  x="942.12" y="390.15" width="3" height="309.8526238693038" /><rect  x="942.33" y="700.00" width="3" height="0" /><rect  x="947.60" y="227.00" width="3" height="473.0047601493041" /><rect  x="947.82" y="700.00" width="3.168490717987879" height="0" /><rect  x="953.99" y="366.53" width="3" height="333.47399292634856" /><rect  x="954.20" y="700.00" width="3" height="0" /><rect  x="957.71" y="411.36" width="3" height="288.6431213663386" /><rect  x="957.92" y="700.00" width="4.23544002865674" height="0" /><rect  x="965.16" y="100.00" width="3" height="600" /><rect  x="965.37" y="700.00" width="3" height="0" /><rect  x="968.70" y="231.97" width="3" height="468.02728297564" /><rect  x="968.91" y="700.00" width="3" height="0" /><rect  x="973.56" y="417.82" width="3" height="282.17683508441667" /><rect  x="973.77" y="700.00" width="3" height="0" /><rect  x="978.10" y="199.62" width="3" height="500.38441151296" /><rect  x="978.32" y="700.00" width="3" height="0" /><rect  x="983.27" y="120.46" width="3" height="579.5361118017361" /><rect  x="983.49" y="700.00" width="3" height="0" /><rect  x="988.48" y="145.72" width="3" height="554.2845492011156" /><rect  x="988.69" y="700.00" width="3" height="0" /><rect  x="994.02" y="303.50" width="3" height="396.5015635107748" /><rect  x="994.23" y="700.00" width="3" height="0" /><rect  x="999.31" y="423.86" width="3" height="276.1405247624695" /><rect  x="999.52" y="700.00" width="3" height="0" /><rect  x="1003.88" y="301.91" width="3" height="398.0914987756983" /><rect  x="1004.10" y="700.00" width="3" height="0" /><rect  x="1009.01" y="459.02" width="3" height="240.97617413194996" /><rect  x="1009.22" y="700.00" width="3" height="0" /><rect  x="1014.16" y="381.93" width="3" height="318.06835266802733" /><rect  x="1014.37" y="700.00" width="3" height="0" /><rect  x="1019.31" y="405.69" width="3" height="294.31477495261316" /><rect  x="1019.52" y="700.00" width="3" height="0" /><rect  x="1024.45" y="460.12" width="3" height="239.88264059607673" /><rect  x="1024.67" y="700.00" width="3" height="0" /><rect  x="1029.64" y="254.74" width="3" height="445.2554753384732" /><rect  x="1029.85" y="700.00" width="3" height="0" /><rect  x="1035.36" y="309.38" width="3" height="390.6236773379577" /><rect  x="1035.58" y="700.00" width="3" height="0" /><rect  x="1040.51" y="215.61" width="3" height="484.38673732718854" /><rect  x="1040.73" y="700.00" width="3" height="0" /><rect  x="1045.07" y="401.46" width="3" height="298.53757844290845" /><rect  x="1045.28" y="700.00" width="3" height="0" /><rect  x="1050.81" y="498.14" width="3" height="201.85713091830934" /><rect  x="1051.03" y="700.00" width="3" height="0" /><rect  x="1055.97" y="302.60" width="3" height="397.39974673530287" /><rect  x="1056.18" y="700.00" width="3" height="0" /><rect  x="1061.12" y="195.73" width="3" height="504.2748494035718" /><rect  x="1061.33" y="700.00" width="3" height="0" /><rect  x="1066.27" y="182.94" width="3" height="517.0645700207292" /><rect  x="1066.48" y="700.00" width="3" height="0" /><rect  x="1070.93" y="339.95" width="3" height="360.0521802228883" /><rect  x="1071.15" y="700.00" width="3" height="0" /><rect  x="1076.57" y="487.98" width="3" height="212.0173363315413" /><rect  x="1076.78" y="700.00" width="3" height="0" /><rect  x="1081.11" y="300.52" width="3" height="399.4782314626852" /><rect  x="1081.33" y="700.00" width="3" height="0" /><rect  x="1086.87" y="330.16" width="3" height="369.83576859653385" /><rect  x="1087.08" y="700.00" width="3" height="0" /><rect  x="1092.02" y="279.10" width="3" height="420.8985973162326" /><rect  x="1092.23" y="700.00" width="3" height="0" /><rect  x="1097.17" y="311.12" width="3" height="388.88042300840146" /><rect  x="1097.38" y="700.00" width="3" height="0" /><rect  x="1102.31" y="612.34" width="3" height="87.65739638503726" /><rect  x="1102.52" y="700.00" width="3" height="0" /><rect  x="1107.47" y="392.98" width="3" height="307.023990073855" /><rect  x="1107.69" y="700.00" width="3" height="0" /><rect  x="1112.62" y="330.23" width="3" height="369.7732256792661" /><rect  x="1112.84" y="700.00" width="3" height="0" /><rect  x="1117.77" y="260.42" width="3" height="439.5837099205461" /><rect  x="1117.99" y="700.00" width="3" height="0" /><rect  x="1122.92" y="263.64" width="3" height="436.3590037268177" /><rect  x="1123.14" y="700.00" width="3" height="0" /><rect  x="1128.40" y="349.14" width="3" height="350.8579177661215" /><rect  x="1128.62" y="700.00" width="3" height="0" /><rect  x="1132.65" y="249.12" width="3" height="450.876562954217" /><rect  x="1132.86" y="700.00" width="3" height="0" /><rect  x="1138.37" y="267.22" width="3" height="432.77777761569064" /><rect  x="1138.59" y="700.00" width="3" height="0" /><rect  x="1143.52" y="508.00" width="3" height="192.00241619287624" /><rect  x="1143.74" y="700.00" width="3" height="0" /><rect  x="1148.68" y="249.71" width="3" height="450.2868280704054" /><rect  x="1148.89" y="700.00" width="3" height="0" /><rect  x="1153.83" y="224.06" width="3" height="475.9399852391859" /><rect  x="1154.04" y="700.00" width="3" height="0" /><rect  x="1158.98" y="417.94" width="3" height="282.05522384512045" /><rect  x="1159.19" y="700.00" width="3" height="0" /><rect  x="1164.13" y="331.55" width="3" height="368.4491497708122" /><rect  x="1164.34" y="700.00" width="3" height="0" /><rect  x="1169.28" y="269.56" width="3" height="430.4442158486169" /><rect  x="1169.49" y="700.00" width="3" height="0" /><rect  x="1174.43" y="263.06" width="3" height="436.93684802390715" /><rect  x="1174.64" y="700.00" width="3" height="0" /><rect  x="1179.58" y="201.77" width="3" height="498.2321858868774" /><rect  x="1179.79" y="700.00" width="3" height="0" /><rect  x="1184.83" y="255.39" width="3" height="444.61409513616616" /><rect  x="1185.04" y="700.00" width="3" height="0" /><rect  x="1189.39" y="193.42" width="3" height="506.5774601878365" /><rect  x="1189.61" y="700.00" width="3" height="0" /><rect  x="1194.43" y="434.65" width="3" height="265.3545233240882" /><rect  x="1194.65" y="700.00" width="3" height="0" /><rect  x="1199.77" y="412.05" width="3" height="287.95049578069296" /><rect  x="1199.98" y="700.00" width="3" height="0" /><rect  x="1205.33" y="417.72" width="3" height="282.2804030679654" /><rect  x="1205.55" y="700.00" width="3" height="0" /><rect  x="1210.48" y="443.39" width="3" height="256.614905347356" /><rect  x="1210.70" y="700.00" width="3" height="0" /><rect  x="1215.63" y="265.68" width="3" height="434.32030671241307" /><rect  x="1215.85" y="700.00" width="3" height="0" /><rect  x="1220.78" y="142.73" width="3" height="557.2669405589928" /><rect  x="1221.00" y="700.00" width="3" height="0" /><rect  x="1225.93" y="351.00" width="3" height="348.9996362604462" /><rect  x="1226.15" y="700.00" width="3" height="0" /><rect  x="1231.73" y="362.37" width="3" height="337.63111084727274" /><rect  x="1231.94" y="700.00" width="3" height="0" /><rect  x="1236.23" y="419.23" width="3" height="280.76694644613787" /><rect  x="1236.45" y="700.00" width="3" height="0" /><rect  x="1241.39" y="509.70" width="3" height="190.2980120982516" /><rect  x="1241.60" y="700.00" width="3" height="0" /><rect  x="1246.54" y="249.11" width="3" height="450.8867866201353" /><rect  x="1246.75" y="700.00" width="3" height="0" /><rect  x="1251.69" y="239.35" width="3" height="460.64744595317416" /><rect  x="1251.90" y="700.00" width="3" height="0" /><rect  x="1256.84" y="266.77" width="3" height="433.2322383143071" /><rect  x="1257.05" y="700.00" width="3" height="0" /><rect  x="1261.99" y="394.40" width="3" height="305.5985970221925" /><rect  x="1262.20" y="700.00" width="3" height="0" /><rect  x="1267.14" y="519.44" width="3" height="180.5619092506588" /><rect  x="1267.35" y="700.00" width="3" height="0" /><rect  x="1272.29" y="410.78" width="3" height="289.22225416296817" /><rect  x="1272.50" y="700.00" width="3" height="0" /><rect  x="1277.44" y="404.28" width="3" height="295.71984681286017" /><rect  x="1277.65" y="700.00" width="3" height="0" /><rect  x="1282.59" y="324.73" width="3" height="375.26706216830405" /><rect  x="1282.80" y="700.00" width="3" height="0" /><rect  x="1287.74" y="318.09" width="3" height="381.91204102084464" /><rect  x="1287.95" y="700.00" width="3" height="0" /><rect  x="1292.89" y="412.23" width="3" height="287.77084929216636" /><rect  x="1293.11" y="700.00" width="3" height="0" /><rect  x="1298.04" y="341.93" width="3" height="358.0739570372169" /><rect  x="1298.26" y="700.00" width="3" height="0" /><rect  x="1303.19" y="292.11" width="3" height="407.89275076606015" /><rect  x="1303.41" y="700.00" width="3" height="0" /><rect  x="1308.34" y="307.76" width="3" height="392.24455475687563" /><rect  x="1308.56" y="700.00" width="3" height="0" /><rect  x="1312.89" y="302.70" width="3" height="397.2953355492119" /><rect  x="1313.10" y="700.00" width="3" height="0" /><rect  x="1318.03" y="356.48" width="3" height="343.5243867603633" /><rect  x="1318.25" y="700.00" width="3" height="0" /><rect  x="1323.19" y="315.57" width="3" height="384.42720359038873" /><rect  x="1323.40" y="700.00" width="3" height="0" /><rect  x="1328.94" y="316.31" width="3" height="383.6863434501714" /><rect  x="1329.16" y="700.00" width="3" height="0" /><rect  x="1334.09" y="322.98" width="3" height="377.01820194861733" /><rect  x="1334.31" y="700.00" width="3" height="0" /><rect  x="1339.25" y="209.32" width="3" height="490.67728239961053" /><rect  x="1339.46" y="700.00" width="3" height="0" /><rect  x="1344.40" y="210.75" width="3" height="489.2508699750348" /><rect  x="1344.61" y="700.00" width="3" height="0" /><rect  x="1349.55" y="204.33" width="3" height="495.6664009235731" /></g><text  class="poloto_text poloto_legend_text" x="1375" y="150" >SMA 14 days</text><line  class="poloto_line poloto_legend_icon poloto1stroke poloto1legend" stroke="black" x1="1380" x2="1430" y1="131.25" y2="131.25" /><path  class="poloto_line poloto1stroke" fill="none" stroke="black" d=" M 237.48 658.99 L 242.63 652.21 L 247.78 657.74 L 252.93 657.74 L 258.08 655.04 L 263.24 651.90 L 268.39 662.09 L 273.54 662.09 L 278.69 670.20 L 283.84 670.20 L 288.99 670.20 L 294.14 678.75 L 299.29 678.75 L 304.44 676.13 L 309.59 668.15 L 314.74 670.79 L 319.89 664.00 L 325.04 656.96 L 330.19 665.48 L 335.34 668.62 L 340.49 668.62 L 345.64 665.66 L 350.79 665.66 L 355.95 665.66 L 361.10 665.66 L 366.25 665.66 L 371.40 665.66 L 376.55 671.10 L 381.70 679.08 L 386.85 683.21 L 392.00 690.00 L 397.15 686.07 L 402.30 680.68 L 407.45 679.23 L 412.60 673.82 L 417.75 673.08 L 422.90 667.61 L 428.05 662.21 L 433.20 658.70 L 438.35 653.52 L 443.50 648.98 L 448.65 645.71 L 453.81 640.57 L 458.96 638.19 L 464.11 632.26 L 469.26 637.00 L 474.41 637.61 L 479.56 634.41 L 484.71 635.58 L 489.86 639.12 L 495.01 638.03 L 500.16 637.53 L 505.31 636.62 L 510.46 635.78 L 515.61 633.02 L 520.76 634.09 L 525.91 631.81 L 531.06 628.93 L 536.21 629.78 L 541.36 632.05 L 546.52 631.69 L 551.67 629.90 L 556.82 631.21 L 561.97 627.04 L 567.12 633.60 L 572.27 622.70 L 577.42 617.12 L 582.57 613.71 L 587.72 613.76 L 592.87 608.22 L 598.02 603.39 L 603.17 596.32 L 608.32 590.69 L 613.47 586.50 L 618.62 581.59 L 623.77 578.30 L 628.92 569.24 L 634.07 554.04 L 639.23 543.15 L 644.38 547.73 L 649.53 545.11 L 654.68 544.14 L 659.83 546.48 L 664.98 549.46 L 670.13 539.11 L 675.28 532.04 L 680.43 522.80 L 685.58 508.45 L 690.73 504.24 L 695.88 513.98 L 701.03 502.18 L 706.18 496.91 L 711.33 490.07 L 716.48 484.73 L 721.63 475.34 L 726.78 471.38 L 731.93 453.56 L 737.09 438.53 L 742.24 440.65 L 747.39 439.31 L 752.54 433.43 L 757.69 436.48 L 762.84 432.19 L 767.99 408.15 L 773.14 417.24 L 778.29 427.62 L 783.44 422.60 L 788.59 426.65 L 793.74 433.56 L 798.89 423.32 L 804.04 427.81 L 809.19 429.17 L 814.34 421.69 L 819.49 427.91 L 824.64 426.34 L 829.80 420.13 L 834.95 425.47 L 840.10 430.43 L 845.25 419.18 L 850.40 421.44 L 855.55 417.43 L 860.70 395.12 L 865.85 410.22 L 871.00 390.63 L 876.15 380.76 L 881.30 376.12 L 886.45 382.61 L 891.60 374.14 L 896.75 382.56 L 901.90 389.23 L 907.05 377.59 L 912.20 371.35 L 917.35 368.53 L 922.50 348.27 L 927.66 345.44 L 932.81 381.25 L 937.96 368.82 L 943.11 390.88 L 948.26 385.21 L 953.41 408.27 L 958.56 385.30 L 963.71 408.29 L 968.86 351.00 L 974.01 349.83 L 979.16 338.95 L 984.31 322.86 L 989.46 312.05 L 994.61 316.14 L 999.76 326.00 L 1004.91 297.56 L 1010.06 292.78 L 1015.21 292.19 L 1020.37 304.96 L 1025.52 287.82 L 1030.67 300.45 L 1035.82 272.55 L 1040.97 314.24 L 1046.12 313.07 L 1051.27 334.40 L 1056.42 347.41 L 1061.57 350.98 L 1066.72 342.37 L 1071.87 336.37 L 1077.02 349.66 L 1082.17 338.34 L 1087.32 334.64 L 1092.47 325.60 L 1097.62 314.96 L 1102.77 340.50 L 1107.92 346.47 L 1113.08 354.66 L 1118.23 344.59 L 1123.38 327.84 L 1128.53 331.16 L 1133.68 334.97 L 1138.83 340.99 L 1143.98 353.00 L 1149.13 335.98 L 1154.28 330.52 L 1159.43 336.79 L 1164.58 340.53 L 1169.73 337.57 L 1174.88 312.62 L 1180.03 298.96 L 1185.18 293.61 L 1190.33 288.83 L 1195.48 301.04 L 1200.63 305.54 L 1205.78 317.58 L 1210.94 330.16 L 1216.09 312.85 L 1221.24 305.21 L 1226.39 314.28 L 1231.54 334.43 L 1236.69 316.57 L 1241.84 333.73 L 1246.99 332.73 L 1252.14 335.41 L 1257.29 336.23 L 1262.44 350.58 L 1267.59 356.64 L 1272.74 356.55 L 1277.89 355.59 L 1283.04 347.11 L 1288.19 350.86 L 1293.34 370.11 L 1298.49 369.46 L 1303.65 340.32 L 1308.80 356.48 L 1313.95 341.69 L 1319.10 349.36 L 1324.25 354.80 L 1329.40 358.34 L 1334.55 353.24 L 1339.70 331.09 L 1344.85 316.80 L 1350.00 302.52" /><text  class="poloto_text poloto_legend_text" x="1375" y="200" >14.0% APR</text><line  class="poloto_line poloto_legend_icon poloto2stroke poloto2legend" stroke="black" x1="1380" x2="1430" y1="181.25" y2="181.25" /><path  class="poloto_line poloto2stroke" fill="none" stroke="black" d=" M 150.00 622.20 L 560.54 622.20 L 560.76 556.01 L 567.10 556.01 L 567.32 555.98 L 571.98 555.98 L 572.20 555.92 L 576.75 555.92 L 576.97 555.86 L 581.30 555.86 L 581.51 555.81 L 587.05 555.81 L 587.27 555.77 L 591.60 555.77 L 591.81 555.73 L 595.62 555.73 L 595.83 543.30 L 597.35 543.30 L 597.57 543.23 L 601.89 543.23 L 602.11 543.17 L 606.01 543.17 L 606.23 504.27 L 607.65 504.27 L 607.87 504.21 L 612.80 504.21 L 613.02 504.17 L 617.95 504.17 L 618.17 504.11 L 623.11 504.11 L 623.32 504.06 L 627.65 504.06 L 627.87 504.00 L 633.41 504.00 L 633.62 503.89 L 637.95 503.89 L 638.17 503.83 L 643.71 503.83 L 643.92 503.77 L 649.03 503.77 L 649.25 503.70 L 649.47 503.70 L 649.69 464.80 L 654.01 464.80 L 654.22 464.74 L 658.61 464.74 L 658.82 464.72 L 659.97 464.72 L 660.18 445.28 L 663.91 445.28 L 664.12 445.25 L 666.97 445.25 L 667.18 425.82 L 669.33 425.82 L 669.54 425.69 L 674.03 425.69 L 674.24 425.59 L 679.29 425.59 L 679.50 425.48 L 684.91 425.48 L 685.13 425.36 L 690.06 425.36 L 690.28 425.29 L 698.71 425.29 L 698.93 425.23 L 700.36 425.23 L 700.58 425.16 L 705.51 425.16 L 705.73 425.03 L 710.66 425.03 L 710.88 424.93 L 715.82 424.93 L 716.03 424.84 L 720.97 424.84 L 721.18 424.72 L 726.12 424.72 L 726.33 424.64 L 730.92 424.64 L 731.14 424.52 L 735.88 424.52 L 736.10 424.41 L 741.00 424.41 L 741.21 424.30 L 746.31 424.30 L 746.52 424.19 L 751.87 424.19 L 752.08 424.05 L 757.02 424.05 L 757.23 423.95 L 762.17 423.95 L 762.38 423.85 L 767.00 423.85 L 767.21 423.72 L 772.03 423.72 L 772.25 423.64 L 777.62 423.64 L 777.84 423.56 L 782.77 423.56 L 782.99 423.44 L 787.92 423.44 L 788.14 423.37 L 793.07 423.37 L 793.29 423.29 L 798.22 423.29 L 798.44 423.15 L 803.37 423.15 L 803.59 423.06 L 808.52 423.06 L 808.74 422.96 L 813.68 422.96 L 813.89 422.81 L 818.83 422.81 L 819.04 422.73 L 823.98 422.73 L 824.19 422.58 L 828.52 422.58 L 828.74 422.44 L 833.79 422.44 L 834.01 422.37 L 838.17 422.37 L 838.38 383.49 L 838.83 383.49 L 839.04 383.39 L 843.97 383.39 L 844.19 383.25 L 849.29 383.25 L 849.50 383.19 L 854.27 383.19 L 854.49 383.04 L 859.42 383.04 L 859.64 382.85 L 866.15 382.85 L 866.37 382.70 L 870.33 382.70 L 870.55 382.61 L 875.48 382.61 L 875.70 382.46 L 880.63 382.46 L 880.85 382.34 L 885.78 382.34 L 886.00 382.22 L 890.35 382.22 L 890.56 382.10 L 895.48 382.10 L 895.69 382.00 L 900.74 382.00 L 900.96 381.90 L 906.39 381.90 L 906.60 381.76 L 911.54 381.76 L 911.75 381.63 L 916.69 381.63 L 916.90 381.47 L 921.84 381.47 L 922.05 381.30 L 926.62 381.30 L 926.83 381.14 L 931.60 381.14 L 931.81 342.24 L 936.68 342.24 L 936.90 342.17 L 941.90 342.17 L 942.12 342.05 L 947.39 342.05 L 947.60 341.87 L 953.77 341.87 L 953.99 341.74 L 957.49 341.74 L 957.71 341.63 L 964.94 341.63 L 965.16 341.40 L 968.48 341.40 L 968.70 341.22 L 973.34 341.22 L 973.56 341.12 L 977.89 341.12 L 978.10 340.92 L 983.06 340.92 L 983.27 340.70 L 988.26 340.70 L 988.48 340.49 L 993.80 340.49 L 994.02 340.34 L 999.09 340.34 L 999.31 340.23 L 1003.67 340.23 L 1003.88 340.08 L 1008.79 340.08 L 1009.01 339.99 L 1013.94 339.99 L 1014.16 339.86 L 1019.09 339.86 L 1019.31 339.75 L 1024.24 339.75 L 1024.45 339.66 L 1029.42 339.66 L 1029.64 339.49 L 1035.15 339.49 L 1035.36 339.34 L 1040.30 339.34 L 1040.51 339.15 L 1044.85 339.15 L 1045.07 339.04 L 1050.60 339.04 L 1050.81 338.96 L 1055.75 338.96 L 1055.97 338.81 L 1060.90 338.81 L 1061.12 338.61 L 1066.05 338.61 L 1066.27 338.42 L 1070.72 338.42 L 1070.93 338.28 L 1076.35 338.28 L 1076.57 338.20 L 1080.90 338.20 L 1081.11 338.04 L 1086.65 338.04 L 1086.87 337.90 L 1091.80 337.90 L 1092.02 337.74 L 1096.96 337.74 L 1097.17 337.59 L 1102.09 337.59 L 1102.31 337.56 L 1107.26 337.56 L 1107.47 337.44 L 1112.41 337.44 L 1112.62 337.30 L 1117.56 337.30 L 1117.77 337.13 L 1122.71 337.13 L 1122.92 336.96 L 1128.19 336.96 L 1128.40 336.83 L 1132.44 336.83 L 1132.65 336.65 L 1138.16 336.65 L 1138.37 336.49 L 1143.31 336.49 L 1143.52 336.42 L 1148.46 336.42 L 1148.68 336.24 L 1153.61 336.24 L 1153.83 336.06 L 1158.76 336.06 L 1158.98 335.95 L 1163.91 335.95 L 1164.13 335.81 L 1169.06 335.81 L 1169.28 335.65 L 1174.21 335.65 L 1174.43 335.48 L 1179.36 335.48 L 1179.58 335.29 L 1184.62 335.29 L 1184.83 335.12 L 1189.18 335.12 L 1189.39 334.92 L 1194.22 334.92 L 1194.43 334.82 L 1199.55 334.82 L 1199.77 334.71 L 1205.12 334.71 L 1205.33 334.60 L 1210.27 334.60 L 1210.48 334.50 L 1215.42 334.50 L 1215.63 334.34 L 1220.57 334.34 L 1220.78 334.12 L 1225.72 334.12 L 1225.93 333.99 L 1231.51 333.99 L 1231.73 333.86 L 1236.02 333.86 L 1236.23 333.75 L 1241.17 333.75 L 1241.39 333.68 L 1246.32 333.68 L 1246.54 333.51 L 1251.47 333.51 L 1251.69 333.33 L 1256.62 333.33 L 1256.84 333.16 L 1261.77 333.16 L 1261.99 333.05 L 1266.92 333.05 L 1267.14 332.98 L 1272.07 332.98 L 1272.29 332.87 L 1277.22 332.87 L 1277.44 332.75 L 1282.37 332.75 L 1282.59 332.61 L 1287.53 332.61 L 1287.74 332.46 L 1292.68 332.46 L 1292.89 332.35 L 1297.83 332.35 L 1298.04 332.21 L 1302.98 332.21 L 1303.19 332.06 L 1308.13 332.06 L 1308.34 331.91 L 1312.67 331.91 L 1312.89 331.75 L 1317.82 331.75 L 1318.03 331.62 L 1322.97 331.62 L 1323.19 331.48 L 1328.73 331.48 L 1328.94 331.33 L 1333.88 331.33 L 1334.09 331.18 L 1339.03 331.18 L 1339.25 331.00 L 1344.18 331.00 L 1344.40 330.81 L 1349.33 330.81 L 1349.55 330.62 L 1349.33 330.62" /><text  class="poloto_labels poloto_text poloto_title" x="750" y="37.5" >Rewards</text><text  class="poloto_labels poloto_text poloto_xname" x="750" y="781.25" ></text><text  class="poloto_labels poloto_text poloto_yname" transform="rotate(-90,37.5,400)" x="37.5" y="400" >DOT</text><text  class="poloto_tick_labels poloto_text" dominant-baseline="middle" text-anchor="start" x="150" y="70" ></text><line  class="poloto_axis_lines" stroke="black" x1="150" x2="144" y1="700" y2="700" /><text  class="poloto_tick_labels poloto_text" dominant-baseline="middle" text-anchor="end" x="135" y="700" >0e0</text><line  class="poloto_axis_lines" stroke="black" x1="150" x2="144" y1="649.2596857494536" y2="649.2596857494536" /><text  class="poloto_tick_labels poloto_text" dominant-baseline="middle" text-anchor="end" x="135" y="649.2596857494536" >0.05</text><line  class="poloto_axis_lines" stroke="black" x1="150" x2="144" y1="598.5193714989073" y2="598.5193714989073" /><text  class="poloto_tick_labels poloto_text" dominant-baseline="middle" text-anchor="end" x="135" y="598.5193714989073" >0.10</text><line  class="poloto_axis_lines" stroke="black" x1="150" x2="144" y1="547.7790572483608" y2="547.7790572483608" /><text  class="poloto_tick_labels poloto_text" dominant-baseline="middle" text-anchor="end" x="135" y="547.7790572483608" >0.15</text><line  class="poloto_axis_lines" stroke="black" x1="150" x2="144" y1="497.03874299781444" y2="497.03874299781444" /><text  class="poloto_tick_labels poloto_text" dominant-baseline="middle" text-anchor="end" x="135" y="497.03874299781444" >0.20</text><line  class="poloto_axis_lines" stroke="black" x1="150" x2="144" y1="446.2984287472681" y2="446.2984287472681" /><text  class="poloto_tick_labels poloto_text" dominant-baseline="middle" text-anchor="end" x="135" y="446.2984287472681" >0.25</text><line  class="poloto_axis_lines" stroke="black" x1="150" x2="144" y1="395.5581144967216" y2="395.5581144967216" /><text  class="poloto_tick_labels poloto_text" dominant-baseline="middle" text-anchor="end" x="135" y="395.5581144967216" >0.30</text><line  class="poloto_axis_lines" stroke="black" x1="150" x2="144" y1="344.81780024617524" y2="344.81780024617524" /><text  class="poloto_tick_labels poloto_text" dominant-baseline="middle" text-anchor="end" x="135" y="344.81780024617524" >0.35</text><line  class="poloto_axis_lines" stroke="black" x1="150" x2="144" y1="294.0774859956289" y2="294.0774859956289" /><text  class="poloto_tick_labels poloto_text" dominant-baseline="middle" text-anchor="end" x="135" y="294.0774859956289" >0.40</text><line  class="poloto_axis_lines" stroke="black" x1="150" x2="144" y1="243.33717174508246" y2="243.33717174508246" /><text  class="poloto_tick_labels poloto_text" dominant-baseline="middle" text-anchor="end" x="135" y="243.33717174508246" >0.45</text><line  class="poloto_axis_lines" stroke="black" x1="150" x2="144" y1="192.5968574945361" y2="192.5968574945361" /><text  class="poloto_tick_labels poloto_text" dominant-baseline="middle" text-anchor="end" x="135" y="192.5968574945361" >0.50</text><line  class="poloto_axis_lines" stroke="black" x1="150" x2="144" y1="141.85654324398968" y2="141.85654324398968" /><text  class="poloto_tick_labels poloto_text" dominant-baseline="middle" text-anchor="end" x="135" y="141.85654324398968" >0.55</text><text  class="poloto_tick_labels poloto_text" dominant-baseline="middle" text-anchor="start" x="825.0000000000001" y="70" >¹2022-03-01 00:00:00 UTC in Months</text><line  class="poloto_axis_lines" stroke="black" x1="289.72493476873206" x2="289.72493476873206" y1="700" y2="705" /><text  class="poloto_tick_labels poloto_text" dominant-baseline="start" text-anchor="middle" x="289.72493476873206" y="730" >2022 Mar¹</text><line  class="poloto_axis_lines" stroke="black" x1="449.3917709343659" x2="449.3917709343659" y1="700" y2="705" /><text  class="poloto_tick_labels poloto_text" dominant-baseline="start" text-anchor="middle" x="449.3917709343659" y="730" >2022 Apr</text><line  class="poloto_axis_lines" stroke="black" x1="603.9080639978929" x2="603.9080639978929" y1="700" y2="705" /><text  class="poloto_tick_labels poloto_text" dominant-baseline="start" text-anchor="middle" x="603.9080639978929" y="730" >2022 May</text><line  class="poloto_axis_lines" stroke="black" x1="763.5749001635268" x2="763.5749001635268" y1="700" y2="705" /><text  class="poloto_tick_labels poloto_text" dominant-baseline="start" text-anchor="middle" x="763.5749001635268" y="730" >2022 Jun</text><line  class="poloto_axis_lines" stroke="black" x1="918.0911932270392" x2="918.0911932270392" y1="700" y2="705" /><text  class="poloto_tick_labels poloto_text" dominant-baseline="start" text-anchor="middle" x="918.0911932270392" y="730" >2022 Jul</text><line  class="poloto_axis_lines" stroke="black" x1="1077.758029392673" x2="1077.758029392673" y1="700" y2="705" /><text  class="poloto_tick_labels poloto_text" dominant-baseline="start" text-anchor="middle" x="1077.758029392673" y="730" >2022 Aug</text><line  class="poloto_axis_lines" stroke="black" x1="1237.424865558307" x2="1237.424865558307" y1="700" y2="705" /><text  class="poloto_tick_labels poloto_text" dominant-baseline="start" text-anchor="middle" x="1237.424865558307" y="730" >2022 Sep</text><path  stroke="black" fill="none" class="poloto_axis_lines" d=" M 150 700 L 1350 700" /><path  stroke="black" fill="none" class="poloto_axis_lines" style="stroke-dasharray:5.074031425054639;stroke-dashoffset:-0;" d=" M 150 700 L 150 100" /></svg>